<svg version="1.1" id="Layer_1" xmlns="http://www.w3.org/2000/svg" xmlns:xlink="http://www.w3.org/1999/xlink" x="0px" y="0px"
	 width="100%" viewBox="0 0 400 416" enable-background="new 0 0 400 416" xml:space="preserve">
<path fill="#000000" opacity="1.000000" stroke="none" 
	d="
M351.625000,1.000000 
	C365.432434,19.888506 375.876160,40.152832 380.867676,62.988846 
	C387.387451,92.816681 386.052612,122.535408 379.251434,152.053650 
	C375.730316,167.336075 369.684357,181.516830 356.896149,191.745453 
	C356.289124,192.230957 355.924500,193.019501 355.289734,193.880127 
	C358.372528,197.292831 362.200653,199.187531 366.213196,200.685135 
	C373.619537,203.449356 381.423828,204.149353 389.224426,204.755920 
	C391.510559,204.933670 393.657135,205.395721 394.511322,207.765259 
	C395.487244,210.472412 393.547363,212.293350 391.806458,213.711029 
	C388.713196,216.230072 385.163544,218.067001 381.336395,219.332062 
	C371.858429,222.464996 362.116425,224.576096 351.765472,226.763702 
	C353.486786,232.169998 355.216827,237.268051 356.716156,242.433060 
	C357.688812,245.783691 358.578217,249.196686 359.058990,252.643921 
	C360.064056,259.850372 357.368073,262.347382 350.314636,260.931305 
	C347.552460,260.376770 344.852173,259.511810 342.126648,258.777283 
	C340.524231,258.345428 338.927887,257.827332 337.077850,258.839417 
	C337.817017,263.375885 340.764435,266.890076 342.784119,270.815399 
	C343.627472,272.454468 344.861359,274.010590 343.648956,275.889252 
	C342.435272,277.769958 340.413544,277.358154 338.635956,277.211426 
	C332.058868,276.668488 325.848755,274.730042 320.345306,271.142944 
	C316.411682,268.579041 313.420258,267.993256 309.430389,271.487427 
	C305.738464,274.720642 301.000427,276.777130 296.663361,279.246979 
	C294.932861,280.232452 293.083801,280.993164 291.655609,283.099243 
	C299.050720,288.868073 301.475220,297.636292 301.450867,305.963745 
	C301.428711,313.536255 303.522491,319.256012 306.814880,325.756134 
	C313.493011,338.940613 318.530121,352.938232 323.104462,367.035400 
	C328.340363,383.171387 333.163971,399.422516 335.974457,416.601135 
	C334.285645,417.000000 332.571289,417.000000 330.395142,416.580872 
	C327.956360,403.835632 324.760315,391.812256 321.153473,379.873352 
	C315.902985,362.493896 309.641632,345.508942 302.222870,328.934845 
	C300.395508,324.852417 298.441071,323.933990 294.239075,326.184052 
	C279.435272,334.111023 264.344086,341.045898 247.401428,343.750549 
	C225.705139,347.214081 204.086227,348.465088 182.398209,344.847260 
	C167.665817,342.389740 152.676453,340.186859 140.926590,329.494659 
	C139.597427,328.285156 138.161194,328.810791 136.681610,328.971252 
	C127.098877,330.010468 117.565392,331.648743 107.856506,331.182648 
	C106.401665,331.112793 104.575600,330.383636 103.280312,332.204712 
	C103.729034,332.770966 104.058113,333.375427 104.551361,333.779572 
	C109.821571,338.097534 114.964554,342.584961 120.950966,345.946289 
	C122.774414,346.970154 124.077454,348.505219 124.130241,350.710510 
	C124.190407,353.224609 121.956871,353.361084 120.353172,354.016815 
	C115.818245,355.871216 112.187073,358.672485 109.549042,363.376160 
	C114.167770,364.377747 118.231468,365.200653 122.266495,366.145966 
	C130.955963,368.181763 131.642899,369.971436 128.474411,378.671448 
	C123.965782,391.051300 121.226448,403.870270 120.000000,417.000000 
	C118.285645,417.000000 116.571281,417.000000 114.428467,417.000000 
	C115.970856,403.320007 118.614723,389.777618 122.595856,376.530548 
	C123.690498,372.888184 122.592964,371.330963 118.836594,370.935638 
	C114.708412,370.501221 110.589195,369.795593 106.534172,368.899872 
	C101.629868,367.816559 100.959221,365.370880 103.542038,361.162048 
	C106.479477,356.375366 111.061867,353.321564 115.530556,349.483551 
	C109.326057,344.469666 103.449608,339.879059 97.771233,335.055267 
	C95.461960,333.093536 91.824921,331.004547 93.449699,327.448120 
	C95.045799,323.954437 98.925529,325.415375 102.012901,325.571411 
	C112.677177,326.110352 123.309074,326.017944 133.898682,324.296875 
	C137.552216,323.703064 139.347580,322.119263 138.594040,318.320618 
	C136.685089,308.697662 138.431412,299.803314 144.541306,291.185730 
	C139.333435,289.334625 134.004868,288.485474 129.912888,285.771698 
	C121.010811,279.867859 112.384140,280.417236 103.397202,284.771057 
	C98.612297,287.089203 93.360886,287.035828 88.301369,287.918457 
	C86.173386,288.289612 83.836929,287.981262 82.487930,285.928253 
	C81.203979,283.974243 83.058266,282.566589 83.727036,280.942261 
	C85.095581,277.618256 88.778183,275.597900 89.219482,271.562744 
	C86.235603,269.562714 83.591545,271.601898 80.951454,271.824036 
	C76.476257,272.200531 72.076103,273.100372 67.721024,274.305267 
	C63.056252,275.595825 61.038177,273.565735 62.277798,268.717499 
	C64.708801,259.209656 67.628296,249.848007 72.336258,240.325867 
	C66.536232,237.358688 60.562767,234.910690 55.278355,231.242950 
	C50.209621,227.724884 45.114548,224.282166 41.113884,219.497116 
	C39.573929,217.655228 38.124313,215.625946 39.383862,213.184326 
	C40.544785,210.933868 43.000652,210.833542 45.131504,211.074905 
	C51.930702,211.845093 58.679253,211.941055 66.378380,210.343414 
	C59.282417,206.213348 54.072269,201.120087 49.537422,195.180069 
	C41.331951,184.432037 36.091862,172.262604 32.021996,159.565887 
	C26.782999,143.221848 25.916525,126.264320 26.138885,109.261009 
	C26.422985,87.536278 31.975286,66.819481 38.780121,46.380859 
	C40.041943,42.590927 41.310421,38.799072 42.732468,35.067806 
	C44.129253,31.402802 46.449024,29.489069 50.815598,30.351830 
	C73.300209,34.794399 93.330902,44.564228 111.638840,58.090878 
	C113.754707,59.654175 115.619118,61.682659 117.225098,63.782318 
	C119.709045,67.029839 122.434326,66.901787 126.031464,65.778412 
	C144.841187,59.904179 163.915146,57.845440 183.584503,61.186813 
	C193.637390,62.894573 203.297745,65.566360 213.446960,69.639763 
	C212.896103,66.386063 212.631180,63.775826 211.979691,61.265923 
	C211.322922,58.735588 211.723022,56.468124 213.611649,54.880520 
	C215.657364,53.160854 218.089371,53.803371 220.146744,55.145309 
	C228.941833,60.881985 237.048080,67.538940 245.065582,74.283112 
	C249.712265,78.191826 254.020401,82.502998 259.084290,87.191742 
	C262.477509,78.919777 266.595367,71.957344 271.538910,65.514946 
	C286.826691,45.591965 303.936401,27.547302 325.087524,13.670123 
	C332.492218,8.811925 341.038696,6.175237 348.764282,1.247282 
	C349.750000,1.000000 350.500000,1.000000 351.625000,1.000000 
M105.335869,129.092987 
	C110.577400,129.532486 116.271118,126.308685 121.437004,130.555786 
	C119.589317,133.067322 117.317825,133.057266 115.242760,133.381927 
	C103.657768,135.194427 91.937302,133.464783 80.323669,134.661865 
	C79.051094,134.793015 78.043152,134.187393 77.549622,132.966827 
	C77.027229,131.674911 77.688469,130.647156 78.583427,129.868362 
	C81.837540,127.036652 85.065399,124.163963 88.457672,121.503777 
	C101.508682,111.269264 113.683266,99.814896 129.210007,92.723877 
	C128.532990,91.928307 128.296112,91.431686 127.905426,91.222946 
	C119.348534,86.650932 112.749550,79.273346 104.194878,74.688171 
	C102.891281,73.989456 101.669327,72.819580 102.097374,71.063950 
	C102.542870,69.236732 104.255386,69.246468 105.707832,68.968407 
	C107.763947,68.574760 110.069565,69.412849 112.108231,67.603294 
	C111.135315,64.223450 108.382294,62.355057 105.956619,60.148228 
	C101.333977,55.942646 95.694626,53.391693 90.329720,50.454926 
	C78.470413,43.963089 66.101959,38.726562 52.745960,35.987007 
	C49.606869,35.343128 48.299561,36.055969 47.185345,38.967960 
	C41.710621,53.276115 37.070473,67.804749 34.480511,82.942772 
	C30.221264,107.837563 29.820591,132.587326 37.370861,157.001831 
	C44.154156,178.936218 53.271187,199.197678 76.020470,209.384705 
	C77.412712,210.008148 78.849319,210.867981 78.359711,212.721817 
	C77.914566,214.407333 76.315079,214.811417 74.816795,215.050888 
	C68.548500,216.052795 62.237392,216.355103 55.890255,216.282288 
	C52.993801,216.249054 50.012447,215.820953 46.716965,216.866058 
	C47.508717,217.927597 47.892105,218.674454 48.478008,219.192047 
	C56.514839,226.291855 64.956917,232.676056 75.771530,235.036331 
	C78.978592,235.736267 81.062317,237.033813 78.529228,240.886703 
	C76.718025,243.641586 75.539787,246.830139 74.217247,249.884964 
	C71.800552,255.467133 69.903076,261.211731 68.699379,267.258301 
	C72.066444,268.287262 74.823799,267.568573 77.575989,267.043335 
	C82.809074,266.044556 88.029572,264.974304 93.399361,265.068878 
	C95.272636,265.101868 97.204597,265.175995 98.226723,267.026733 
	C99.340111,269.042694 97.781944,270.496185 96.749283,271.947479 
	C94.400322,275.248627 91.501213,278.206268 89.921936,282.689331 
	C97.941833,282.159149 104.699142,279.184326 111.361481,276.373810 
	C115.478531,274.636963 118.801697,274.479614 122.650063,276.668793 
	C135.904953,284.208923 150.408798,288.010986 165.463135,288.651062 
	C175.483673,289.077087 179.649063,293.202362 180.206238,303.411652 
	C180.380585,306.606018 181.745590,308.303436 184.499786,308.427704 
	C194.418350,308.875397 204.097290,311.369324 214.283386,310.005280 
	C227.706375,308.207855 240.832413,305.785645 253.446701,300.787750 
	C256.181763,299.704071 257.969086,298.387451 257.789459,295.048523 
	C257.590302,291.346802 259.743927,289.044678 262.842987,287.101593 
	C266.420868,284.858337 270.548340,285.210846 274.295532,283.872955 
	C286.775391,279.417145 298.283722,273.131378 308.887604,265.282990 
	C312.905853,262.308899 316.112823,262.405121 320.192657,264.996765 
	C324.986877,268.042236 329.955841,271.111664 336.147247,271.153900 
	C335.939087,268.718445 334.278839,267.316315 333.591736,265.472351 
	C332.240845,261.847046 328.217651,257.732483 330.998077,254.527893 
	C334.061615,250.996979 339.353027,252.825241 343.671295,254.124237 
	C346.804291,255.066650 349.866211,256.359589 353.129852,255.719620 
	C354.057678,253.795395 353.511322,252.182724 353.252808,250.553162 
	C352.069763,243.096176 349.046997,236.202332 346.580933,229.154175 
	C344.772522,223.985672 345.184357,222.828232 350.646454,221.652115 
	C357.968384,220.075546 365.344513,218.705734 372.588989,216.828903 
	C377.902863,215.452255 383.357727,214.075302 387.989471,210.265717 
	C387.204742,209.754395 386.958923,209.470352 386.682312,209.436264 
	C385.691406,209.314087 384.690674,209.266739 383.692627,209.208572 
	C372.504456,208.556396 362.103760,205.634476 352.847015,199.019272 
	C347.025391,194.858963 346.860352,192.274658 352.458801,188.098312 
	C354.840088,186.321945 357.522003,184.994064 359.462982,182.549805 
	C366.437469,173.766846 370.855865,163.736404 373.565247,153.009567 
	C378.856079,132.062607 380.075531,110.796448 378.911011,89.204376 
	C377.351379,60.285713 367.491302,34.388836 352.499451,10.065844 
	C350.933075,7.524548 349.151184,7.141621 346.677429,8.376637 
	C341.021301,11.200442 335.235382,13.790733 329.724548,16.873367 
	C319.615479,22.528112 311.334137,30.514057 302.924347,38.355965 
	C289.067871,51.276752 277.052094,65.670990 267.366699,81.948990 
	C265.083282,85.786629 263.063751,89.937592 264.672607,94.735695 
	C265.200653,96.310516 265.946381,98.222382 264.058563,99.201813 
	C262.101166,100.217331 260.991730,98.260399 260.081116,97.032555 
	C254.376556,89.340775 247.066177,83.259048 240.002960,76.956108 
	C233.100830,70.796951 225.770203,65.153267 217.878418,59.935944 
	C216.715256,62.792213 217.704422,65.005249 218.497314,67.114838 
	C219.900253,70.847572 221.584335,74.474220 223.131775,78.153252 
	C223.708878,79.525307 224.592575,81.033760 223.036972,82.243340 
	C221.192734,83.677353 219.925369,82.269470 218.852539,80.974426 
	C214.512680,75.735687 208.571396,73.291801 202.377838,71.088913 
	C186.716934,65.518745 170.533463,64.001686 154.132462,65.218010 
	C140.695541,66.214516 127.800201,70.069977 115.028130,73.990776 
	C115.102753,76.190132 116.632866,76.792183 117.778267,77.660889 
	C123.342651,81.881096 128.805496,86.237968 135.211899,89.220253 
	C136.984650,90.045517 138.991470,91.359299 138.818527,93.606827 
	C138.648590,95.815399 136.252213,96.067383 134.607697,96.555557 
	C127.451653,98.679855 121.386818,102.699852 115.417236,106.994102 
	C106.141357,113.666779 97.702301,121.319550 88.202927,128.972748 
	C94.281464,130.571060 99.367203,128.792191 105.335869,129.092987 
z"/>
<path fill="#000000" opacity="1.000000" stroke="none" 
	d="
M173.428467,417.000000 
	C174.840530,403.985291 172.836670,390.457214 177.358658,377.029938 
	C180.567154,379.174988 180.189392,381.459961 180.124146,383.472595 
	C179.769363,394.416199 179.308823,405.356323 178.942352,416.648834 
	C177.285645,417.000000 175.571289,417.000000 173.428467,417.000000 
z"/>
<path fill="#000000" opacity="1.000000" stroke="none" 
	d="
M271.416656,417.000000 
	C271.576080,407.574432 269.411438,398.436920 268.100494,389.208069 
	C267.856659,387.491364 266.921448,385.193878 269.372833,384.565643 
	C271.418671,384.041351 272.792938,385.940613 273.357422,387.631897 
	C274.184052,390.108521 274.747833,392.741516 274.949921,395.344666 
	C275.486511,402.256317 275.769318,409.187683 276.076538,416.555603 
	C274.611115,417.000000 273.222198,417.000000 271.416656,417.000000 
z"/>
<path fill="#000000" opacity="1.000000" stroke="none" 
	d="
M295.428223,164.485626 
	C299.566284,165.413147 303.286621,166.274475 307.018494,167.082336 
	C311.604370,168.075119 314.207733,170.652908 314.722626,175.530426 
	C316.067810,188.273178 317.892975,200.989639 312.813629,213.421326 
	C311.862762,215.748596 310.895660,218.025314 309.442719,220.066788 
	C308.427673,221.493011 307.618835,223.804749 305.349518,222.774841 
	C303.025787,221.720261 304.297577,219.628311 304.804565,217.953094 
	C307.699860,208.386993 310.155121,198.798859 309.685547,188.622696 
	C309.293732,180.131042 307.507965,177.447708 299.327271,175.207001 
	C297.263184,174.641632 295.190399,174.107986 293.286377,173.603439 
	C290.978333,175.312515 291.909607,177.411835 291.983276,179.313019 
	C292.369873,189.290955 293.056519,199.281204 289.025269,208.830429 
	C285.401001,217.415497 279.213959,222.928925 269.750702,222.938507 
	C261.193451,222.947174 255.362427,217.995346 251.423462,210.423904 
	C248.424347,204.658997 246.819611,198.619400 246.830490,192.244644 
	C246.842682,185.109604 246.055908,177.928101 247.459152,170.834946 
	C248.088623,167.653061 246.262665,167.247513 243.755890,167.125671 
	C238.449173,166.867767 233.136520,166.570068 227.854874,166.016220 
	C224.419724,165.656006 219.511734,164.947113 220.157104,160.949265 
	C220.669724,157.773865 225.273941,156.656937 229.330734,157.036072 
	C240.712570,158.099823 252.135437,158.717926 263.524475,159.713455 
	C274.108246,160.638611 284.667450,161.835800 295.428223,164.485626 
z"/>
<path fill="#000000" opacity="1.000000" stroke="none" 
	d="
M106.977318,227.805481 
	C102.090202,226.111725 100.949127,221.914261 99.853127,217.978012 
	C97.397324,209.158096 96.152306,200.105988 95.326126,190.986374 
	C95.070076,188.160019 96.777962,186.980103 98.765060,186.152145 
	C119.306183,177.593307 139.592209,168.345474 161.138184,162.440964 
	C168.626953,160.388733 173.736191,164.172440 174.217194,171.992279 
	C174.880051,182.768692 175.332001,193.511185 173.504562,204.275497 
	C172.687332,209.089249 170.825119,213.440521 168.900345,218.274384 
	C173.412659,219.418320 177.714996,218.560333 181.919632,218.948593 
	C184.378418,219.175613 187.549973,218.997238 187.770981,222.229156 
	C187.958450,224.970627 185.086792,225.607376 182.861465,226.370697 
	C174.683197,229.175964 166.407547,230.275681 157.897064,228.010101 
	C157.275269,227.844559 156.595169,227.840729 155.943756,227.852264 
	C144.306671,228.058334 139.392075,224.195068 136.522232,212.985855 
	C134.256943,204.137924 134.674500,195.171616 134.839111,186.197113 
	C134.932388,181.112503 134.172943,180.583099 129.392960,182.293716 
	C121.723656,185.038315 114.072159,187.836014 106.362991,190.464218 
	C103.578300,191.413605 102.414192,192.593018 103.074478,195.891205 
	C104.801460,204.517593 105.795982,213.296951 109.318527,221.485947 
	C110.438461,224.089508 110.246353,226.382309 106.977318,227.805481 
z"/>
<path fill="#000000" opacity="1.000000" stroke="none" 
	d="
M103.722122,234.614319 
	C111.602760,232.506790 112.079010,233.181610 110.590851,244.096237 
	C113.157623,244.588455 114.868942,242.643112 116.928825,241.901382 
	C119.585770,240.944641 122.168121,239.759369 124.864189,238.941467 
	C126.265900,238.516251 128.077316,238.451660 128.710693,240.257233 
	C129.397003,242.213776 127.713150,242.818054 126.334442,243.393021 
	C120.809250,245.697037 115.279419,247.990692 109.729126,250.233261 
	C108.057556,250.908630 106.230408,251.886902 104.628052,250.224869 
	C103.161522,248.703720 103.682991,246.833374 104.153122,245.039108 
	C104.593109,243.359879 106.145370,241.872162 104.972130,239.636017 
	C100.843491,240.992691 97.262978,243.355484 93.495461,245.360641 
	C91.962097,246.176743 89.843643,248.302322 88.430046,245.463303 
	C87.329956,243.253937 89.512337,242.305878 91.101669,241.430023 
	C95.180595,239.182205 99.283485,236.977859 103.722122,234.614319 
z"/>
<path fill="#000000" opacity="1.000000" stroke="none" 
	d="
M315.122009,234.091003 
	C310.958588,234.982117 307.012817,236.104385 303.070099,237.237244 
	C301.590057,237.662521 299.940979,238.137436 299.205597,236.310501 
	C298.479065,234.505417 299.935425,233.472275 301.328827,232.934784 
	C307.184937,230.675781 313.046417,228.411438 318.999817,226.431274 
	C322.324371,225.325500 324.010040,227.251434 323.139709,230.746719 
	C322.866821,231.842819 321.839142,232.723953 322.227753,234.130157 
	C324.558075,235.409744 326.217285,233.486038 328.056641,232.699692 
	C330.337585,231.724564 332.464264,230.390381 334.739929,229.400604 
	C336.266632,228.736572 338.196289,228.175980 339.023499,230.246170 
	C339.756195,232.079849 337.975708,232.896835 336.687286,233.505981 
	C331.447601,235.983337 326.233307,238.550079 320.846802,240.670059 
	C316.381836,242.427338 314.636139,240.264755 315.122009,234.091003 
z"/>
<path fill="#000000" opacity="1.000000" stroke="none" 
	d="
M195.334549,259.091919 
	C192.107147,257.940521 191.986023,260.761230 190.821274,262.088348 
	C189.544357,263.543274 188.528336,265.969849 186.184677,264.631927 
	C183.600784,263.156830 185.088852,260.836884 186.018005,258.973022 
	C186.823471,257.357300 188.023972,255.943481 188.916794,254.365158 
	C190.344025,251.842087 192.203522,251.412445 194.698563,252.789886 
	C197.878723,254.545547 201.141891,256.151367 204.314178,257.920563 
	C205.741440,258.716583 207.507248,259.713257 206.510864,261.711273 
	C205.448990,263.840637 203.478317,263.333893 201.757736,262.499786 
	C199.680725,261.492920 197.676285,260.336304 195.334549,259.091919 
z"/>
</svg>